<?xml version="1.0" encoding="UTF-8"?>
<svg id="logosandtypes_com" data-name="logosandtypes com" xmlns="http://www.w3.org/2000/svg" viewBox="0 0 150 150">
  <defs>
    <style>
      .cls-1 {
        fill: #00abc8;
      }

      .cls-2 {
        fill: #1b365d;
      }

      .cls-3 {
        fill: none;
      }

      .cls-4 {
        fill: #aa4ac4;
      }

      .cls-5 {
        fill: #ffb500;
      }
    </style>
  </defs>
  <g id="Layer_3" data-name="Layer 3">
    <g id="Layer_3-2" data-name="Layer 3">
      <g id="Layer_2" data-name="Layer 2">
        <path id="Layer_3-3" data-name="Layer 3" class="cls-3" d="M0,0H150V150H0V0Z"/>
      </g>
    </g>
  </g>
  <path class="cls-5" d="M84.88,29.62l13.69-13.69c2.68-2.68,7.03-2.68,9.7,0h0c2.68,2.68,2.67,7.02,0,9.7l-13.69,13.69c-2.68,2.68-7.03,2.68-9.7,0h0c-2.68-2.68-2.67-7.02,0-9.7Z"/>
  <path class="cls-4" d="M112.28,57.01l13.69-13.69c2.68-2.68,7.03-2.68,9.7,0h0c2.68,2.68,2.67,7.02,0,9.7l-13.69,13.69c-2.68,2.68-7.03,2.68-9.7,0h0c-2.68-2.68-2.67-7.02,0-9.7Z"/>
  <path class="cls-2" d="M82.01,59.89L126.06,15.84c2.68-2.68,7.03-2.68,9.7,0h0c2.68,2.68,2.67,7.02,0,9.7l-44.04,44.04c-2.68,2.68-7.03,2.68-9.7,0h0c-2.68-2.68-2.67-7.02,0-9.7Z"/>
  <path class="cls-4" d="M16.33,70.78l27.39-27.39c2.68-2.68,7.03-2.68,9.7,0h0c2.68,2.68,2.67,7.02,0,9.7l-27.39,27.39c-2.68,2.68-7.03,2.68-9.7,0h0c-2.68-2.68-2.67-7.02,0-9.7Z"/>
  <path class="cls-2" d="M71.12,125.55l27.39-27.39c2.68-2.68,7.03-2.68,9.7,0h0c2.68,2.68,2.67,7.02,0,9.7l-27.39,27.39c-2.68,2.68-7.03,2.68-9.7,0h0c-2.68-2.68-2.67-7.02,0-9.7Z"/>
  <path class="cls-1" d="M16.33,125.55l43.85-43.85c2.68-2.68,7.03-2.68,9.7,0h0c2.68,2.68,2.67,7.02,0,9.7l-43.85,43.85c-2.68,2.68-7.03,2.68-9.7,0h0c-2.68-2.68-2.67-7.02,0-9.7Z"/>
  <circle class="cls-5" cx="21.18" cy="48.22" r="6.87"/>
  <circle class="cls-1" cx="75.96" cy="20.68" r="6.87"/>
  <circle class="cls-1" cx="130.89" cy="75.63" r="6.87"/>
  <circle class="cls-4" cx="103.35" cy="130.42" r="6.87"/>
  <path class="cls-2" d="M16.33,98.17l13.69-13.69c2.68-2.68,7.03-2.68,9.7,0h0c2.68,2.68,2.67,7.02,0,9.7l-13.69,13.69c-2.68,2.68-7.03,2.68-9.7,0h0c-2.68-2.68-2.67-7.02,0-9.7Z"/>
  <path class="cls-5" d="M43.71,125.56l13.69-13.69c2.68-2.68,7.03-2.68,9.7,0h0c2.68,2.68,2.67,7.02,0,9.7l-13.69,13.69c-2.68,2.68-7.03,2.68-9.7,0h0c-2.68-2.68-2.67-7.02,0-9.7Z"/>
</svg>